# xmcd
#
# Track frame offsets:
# 180
# 20476
# 28115
# 45629
# 56114
# 87782
# 106649
# 124413
# 143395
# 165969
# 196893
# 214531
#
# Disc length: 3061 seconds
#
#
# Revision: 0
# Processed by: cddbd v1.5.1PL0 Copyright (c) Steve Scherf et al.
# Submitted via: FreeRIP 2.942 
#
DISCID=940bf30c
DTITLE=Pearl Jam - Rare Traxx 3
DYEAR=1993
DGENRE=Rock
TTITLE0=01-Better man
TTITLE1=02-Bee girl
TTITLE2=03-Already in love
TTITLE3=04-My way
TTITLE4=05-Immorality
TTITLE5=06-Tremor christ
TTITLE6=07-Hold me
TTITLE7=08-Sitting on a dock of the bay
TTITLE8=09-Corduroy
TTITLE9=10-Not for you
TTITLE10=11-Fuck me in the brain
TTITLE11=12-Three days
EXTD=
EXTT0=
EXTT1=
EXTT2=
EXTT3=
EXTT4=
EXTT5=
EXTT6=
EXTT7=
EXTT8=
EXTT9=
EXTT10=
EXTT11=
PLAYORDER=
